<svg xmlns="http://www.w3.org/2000/svg" width="138" height="42.612" viewBox="0 0 138 42.612"><defs><clipPath id="a"><path fill="none" d="M0 0h138v42.612H0z"/></clipPath></defs><g clip-path="url(#a)" fill="#0040dc"><path d="M126.28 31.882a11.711 11.711 0 1111.721-11.714c0 .331-.015.671-.045 1.015h-19.013l.062.335a7.4 7.4 0 0013.474 2.7h4.8a11.7 11.7 0 01-11 7.666m0-19.113a7.391 7.391 0 00-6.554 3.956l-.219.416h13.55l-.219-.416a7.4 7.4 0 00-6.558-3.956M65.757 31.913a11.732 11.732 0 01-11.716-11.721V-.001h4.312v11.1l.452-.335a11.606 11.606 0 016.951-2.29 11.719 11.719 0 110 23.437m0-19.125a7.406 7.406 0 107.409 7.4 7.412 7.412 0 00-7.409-7.4M38.741 31.913A11.718 11.718 0 1150.46 20.192a11.732 11.732 0 01-11.719 11.721m0-19.125a7.406 7.406 0 107.409 7.4 7.412 7.412 0 00-7.409-7.4M11.716 31.913a11.718 11.718 0 1111.72-11.721 11.732 11.732 0 01-11.72 11.721m0-19.125a7.406 7.406 0 107.409 7.4 7.412 7.412 0 00-7.409-7.4m89.612 19.094a9.929 9.929 0 01-9.918-9.918V9.34h4.311v12.623a5.607 5.607 0 0011.213 0V9.34h4.312v12.623a9.93 9.93 0 01-9.918 9.918M4.314 42.611v-4.312h7.414a7.392 7.392 0 007.331-6.362h4.335a11.74 11.74 0 01-11.667 10.674H4.314zm84.168-10.9a9.9 9.9 0 01-7.158-9.524V-.001h4.312v22.188a5.593 5.593 0 002.846 4.877z"/></g></svg>